<svg xmlns="http://www.w3.org/2000/svg" viewBox="0 0 512 512"><rect width="512" height="512" rx="96" fill="#08051b"/><path fill="#22e6ff" d="M91 225h330l-33-76H124z"/><path fill="#f5c84c" d="m256 74 17 38 42 4-32 28 10 42-37-22-37 22 10-42-32-28 42-4z"/><path fill="#18264b" d="M108 223h296v47H108z"/><circle cx="256" cy="299" r="113" fill="#b87956"/><path fill="#17223e" d="M140 267c13-94 218-94 232 0l-31 8c-14-53-156-53-170 0z"/><path fill="#10182d" d="M118 235h276l-24-58H142z"/><path fill="#f5c84c" d="M201 372h110v44H201z"/><path fill="#fff" d="M202 336c11 16 27 24 54 24s43-8 54-24c-17 7-36 10-54 10s-37-3-54-10z"/><circle cx="216" cy="298" r="10" fill="#10182d"/><circle cx="296" cy="298" r="10" fill="#10182d"/><path d="M221 326c21 15 49 15 70 0" fill="none" stroke="#6e392e" stroke-width="10" stroke-linecap="round"/></svg>
